<svg width="376" height="226" viewBox="0 0 376 226" fill="none" xmlns="http://www.w3.org/2000/svg">
<g clip-path="url(#clip0_675_159)">
<mask id="mask0_675_159" style="mask-type:luminance" maskUnits="userSpaceOnUse" x="28" y="105" width="121" height="121">
<path d="M149 105H28V226H149V105Z" fill="white"/>
</mask>
<g mask="url(#mask0_675_159)">
<path d="M88.5 105C55.0835 105 28 132.083 28 165.5C28 198.905 55.0835 226 88.5 226C121.917 226 149 198.917 149 165.5C148.989 132.083 121.905 105 88.5 105ZM73.3777 190.7H63.2999V140.289H73.3777V190.7ZM113.7 190.7H83.4555V180.622H113.7V190.7ZM113.7 170.533H83.4555V160.456H113.7V170.533ZM113.7 150.367H83.4555V140.289H113.7V150.367Z" fill="#92003B"/>
</g>
</g>
<circle cx="300" cy="170" r="38" fill="#4945FF"/>
<path fill-rule="evenodd" clip-rule="evenodd" d="M313.592 157H293V167.5H303.5V178H314V157.408C314 157.183 313.817 157 313.592 157Z" fill="white"/>
<path d="M293 167H303.573C303.809 167 304 167.191 304 167.427V178H293.427C293.191 178 293 177.809 293 177.573V167Z" fill="#9593FF"/>
<path d="M304 178H314L304.331 187.941C304.209 188.067 304 187.978 304 187.8V178Z" fill="#9593FF"/>
<path d="M293 167H283.2C283.022 167 282.933 166.791 283.059 166.669L293 157V167Z" fill="#9593FF"/>
<g clip-path="url(#clip1_675_159)">
<path d="M345.336 8.66894C303.993 -15.6398 251.46 14.0503 251.003 61.9829C250.557 108.789 300.091 139.02 341.34 118.419L296.303 52.1573L296.303 93.1722C296.303 97.7166 287.607 97.7166 287.607 93.1722V38.1887C287.607 34.5813 294.308 34.2853 296.207 37.421L347.54 114.886C386.103 90.0476 385.582 32.3331 345.336 8.66894ZM339.536 86.2907L330.812 72.9663V36.4888C330.812 33.0874 339.536 33.0874 339.536 36.4888V86.2907Z" fill="black"/>
</g>
<rect x="116" y="55" width="153" height="153" rx="76.5" fill="#38BDF8"/>
<g clip-path="url(#clip2_675_159)">
<mask id="mask1_675_159" style="mask-type:luminance" maskUnits="userSpaceOnUse" x="150" y="105" width="86" height="53">
<path d="M150 105H236V157.036H150V105Z" fill="white"/>
</mask>
<g mask="url(#mask1_675_159)">
<path fill-rule="evenodd" clip-rule="evenodd" d="M193 105C181.533 105 174.367 110.782 171.5 122.345C175.8 116.564 180.817 114.395 186.55 115.841C189.821 116.665 192.159 119.059 194.747 121.708C198.963 126.023 203.842 131.018 214.5 131.018C225.967 131.018 233.133 125.236 236 113.673C231.7 119.455 226.683 121.623 220.95 120.177C217.679 119.353 215.341 116.959 212.753 114.31C208.537 109.995 203.658 105 193 105ZM171.5 131.018C160.033 131.018 152.867 136.8 150 148.364C154.3 142.582 159.317 140.414 165.05 141.859C168.321 142.685 170.659 145.078 173.247 147.726C177.463 152.042 182.342 157.036 193 157.036C204.467 157.036 211.633 151.255 214.5 139.691C210.2 145.473 205.183 147.641 199.45 146.195C196.179 145.372 193.841 142.977 191.253 140.329C187.037 136.013 182.158 131.018 171.5 131.018Z" fill="white"/>
</g>
</g>
<g clip-path="url(#clip3_675_159)">
<path d="M6.1123 62.999C6.1123 77.6001 14.5979 90.2183 26.9027 96.1979L9.30607 47.9866C7.25925 52.5742 6.1123 57.6512 6.1123 62.999Z" fill="#464342"/>
<path d="M67.9042 61.1376C67.9042 56.5787 66.2666 53.4215 64.8621 50.9641C62.9921 47.9255 61.2394 45.3523 61.2394 42.3138C61.2394 38.9228 63.8113 35.7664 67.4339 35.7664C67.5975 35.7664 67.7526 35.7867 67.9119 35.7958C61.3489 29.7833 52.605 26.1123 43.0013 26.1123C30.1139 26.1123 18.7757 32.7243 12.1797 42.7391C13.0452 42.7651 13.8608 42.7833 14.5536 42.7833C18.4121 42.7833 24.3848 42.3152 24.3848 42.3152C26.3733 42.198 26.6078 45.1186 24.6213 45.3537C24.6213 45.3537 22.6229 45.5889 20.3992 45.7054L33.8327 85.6616L41.9056 61.4506L36.1582 45.704C34.1717 45.5875 32.2899 45.3523 32.2899 45.3523C30.302 45.2358 30.5351 42.1966 32.5229 42.3138C32.5229 42.3138 38.6149 42.7819 42.2397 42.7819C46.0975 42.7819 52.0709 42.3138 52.0709 42.3138C54.0608 42.1966 54.2946 45.1172 52.3074 45.3523C52.3074 45.3523 50.3048 45.5875 48.0853 45.704L61.4163 85.3576L65.0958 73.0623C66.6906 67.9601 67.9042 64.2955 67.9042 61.1376Z" fill="#464342"/>
<path d="M43.649 66.2256L32.5811 98.3864C35.8857 99.3578 39.3806 99.8891 43.0019 99.8891C47.2976 99.8891 51.4172 99.1465 55.2519 97.7982C55.1529 97.6402 55.063 97.4725 54.9893 97.29L43.649 66.2256Z" fill="#464342"/>
<path d="M75.3703 45.301C75.529 46.476 75.6188 47.7374 75.6188 49.0941C75.6188 52.8374 74.9197 57.0454 72.8139 62.3069L61.5459 94.8846C72.5128 88.4895 79.8893 76.6083 79.8893 62.9997C79.89 56.5863 78.2517 50.5555 75.3703 45.301Z" fill="#464342"/>
<path d="M43.0014 20C19.291 20 0 39.2892 0 62.9989C0 86.7115 19.291 106 43.0014 106C66.7111 106 86.0049 86.7115 86.0049 62.9989C86.0042 39.2892 66.7111 20 43.0014 20ZM43.0014 104.029C20.3783 104.029 1.97171 85.6229 1.97171 62.9989C1.97171 40.3764 20.3776 21.9717 43.0014 21.9717C65.6238 21.9717 84.029 40.3764 84.029 62.9989C84.029 85.6229 65.6238 104.029 43.0014 104.029Z" fill="#464342"/>
</g>
<defs>
<clipPath id="clip0_675_159">
<rect width="121" height="121" fill="white" transform="translate(28 105)"/>
</clipPath>
<clipPath id="clip1_675_159">
<rect width="125" height="125" fill="white" transform="translate(251)"/>
</clipPath>
<clipPath id="clip2_675_159">
<rect width="86" height="53" fill="white" transform="translate(150 105)"/>
</clipPath>
<clipPath id="clip3_675_159">
<rect width="86" height="86" fill="white" transform="translate(0 20)"/>
</clipPath>
</defs>
</svg>
