<svg width="96" height="96" viewBox="0 0 96 96" fill="none" xmlns="http://www.w3.org/2000/svg">
<g clip-path="url(#clip0_579_1265)">
<path d="M48.5257 4.18617C36.7243 4.18617 27.1576 13.765 27.1576 25.5811C27.1576 29.4486 28.1824 33.0764 29.9751 36.207M48.5257 4.18617C60.3269 4.18617 69.8937 13.765 69.8937 25.5811C69.8937 29.4486 68.8688 33.0764 67.0762 36.207M48.5257 4.18617L67.0762 36.207M48.5257 4.18617L29.9751 36.207M29.9751 36.207C33.6594 42.6414 40.5869 46.9761 48.5257 46.9761C56.4643 46.9761 63.3918 42.6414 67.0762 36.207M29.9751 36.207L22.7728 48.6392M67.0762 36.207L74.2784 48.6392M92.8723 80.7352C86.9715 90.9678 73.9033 94.4742 63.6831 88.5663C60.3111 86.6172 57.6706 83.8867 55.8577 80.7352M92.8723 80.7352C98.7732 70.5019 95.2715 57.4169 85.0515 51.5089C81.6521 49.5442 77.9388 48.6206 74.2784 48.6392M92.8723 80.7352H55.8577M92.8723 80.7352L74.2784 48.6392M55.8577 80.7352C52.1758 74.3344 51.9079 66.1969 55.8618 59.34C59.8002 52.5099 66.9318 48.6766 74.2784 48.6392M55.8577 80.7352H41.1935M4.17884 80.7352C10.0795 90.9678 23.148 94.4742 33.3682 88.5663C36.7401 86.6172 39.3806 83.8867 41.1935 80.7352M4.17884 80.7352C-1.72178 70.5019 1.77993 57.4169 12.0001 51.5089C15.3988 49.5442 19.1124 48.6206 22.7728 48.6392M4.17884 80.7352L22.7728 48.6392M4.17884 80.7352H41.1935M41.1935 80.7352C44.8755 74.3344 45.1433 66.1969 41.1894 59.34C37.251 52.5099 30.1194 48.6766 22.7728 48.6392M1.3125 0.786865H95.7389V95.2131H1.3125V0.786865Z" stroke="#BEB6F2" stroke-width="1.5" stroke-linejoin="round" stroke-dasharray="1 1"/>
</g>
<defs>
<clipPath id="clip0_579_1265">
<rect width="96" height="96" fill="white"/>
</clipPath>
</defs>
</svg>
