<svg width="96" height="96" viewBox="0 0 96 96" fill="none" xmlns="http://www.w3.org/2000/svg">
<g clip-path="url(#clip0_579_1276)">
<path d="M95.4749 48C95.4749 74.0751 74.337 95.2131 48.262 95.2131C22.1869 95.2131 1.04883 74.0751 1.04883 48M95.4749 48C95.4749 21.9249 74.337 0.786865 48.262 0.786865C22.1869 0.786865 1.04883 21.9249 1.04883 48M95.4749 48C95.4749 54.3623 74.337 59.52 48.262 59.52C22.1869 59.52 1.04883 54.3623 1.04883 48M95.4749 48C95.4749 44.587 89.3922 41.5207 79.7277 39.4113M1.04883 48C1.04883 44.4791 7.52227 41.3271 17.7235 39.214M79.7277 39.4113C80.5122 42.1315 80.9332 45.0102 80.9332 48M79.7277 39.4113C75.8454 25.9513 63.0554 16.3672 48.262 16.3672C33.5409 16.3672 21.4507 25.8578 17.7235 39.214M17.7235 39.214C16.9482 41.9923 16.5348 44.9378 16.5348 48M80.9332 48C80.9332 50.8161 66.3059 53.099 48.262 53.099C30.218 53.099 16.5348 50.8161 16.5348 48M80.9332 48C80.9332 45.1839 66.3059 42.901 48.262 42.901C30.218 42.901 16.5348 45.1839 16.5348 48M1.04883 0.786865H95.4749V95.2131H1.04883V0.786865Z" stroke="#FFA69E" stroke-width="1.5" stroke-linejoin="round" stroke-dasharray="1 1"/>
</g>
<defs>
<clipPath id="clip0_579_1276">
<rect width="96" height="96" fill="white"/>
</clipPath>
</defs>
</svg>
