<svg width="95" height="95" viewBox="0 0 95 95" fill="none" xmlns="http://www.w3.org/2000/svg">
<g clip-path="url(#clip0_579_1278)">
<path d="M0.779304 0.778809H94.2219V28.1259M0.779304 0.778809V66.8339M0.779304 0.778809L47.4663 47.4659M94.2219 28.1259V28.1693M94.2219 28.1259C94.2219 28.1403 94.2219 28.1548 94.2219 28.1693M94.2219 28.1259C94.2165 21.1288 91.544 14.1335 86.2061 8.79494C75.5177 -1.89323 58.1887 -1.89323 47.5006 8.79494C36.8239 19.4717 36.8124 36.775 47.4663 47.4659M0.779304 66.8339C0.784093 59.8359 3.45612 52.8394 8.79543 47.5C13.4715 42.824 19.4186 40.1938 25.5246 39.6093M0.779304 66.8339C0.779294 66.8464 0.779294 66.8589 0.779304 66.8716M0.779304 66.8339V66.8716M47.4663 47.4659C47.4778 47.4773 47.4892 47.4887 47.5006 47.5001M47.4663 47.4659L47.5351 47.5346M47.4663 47.4659C41.4578 41.4781 33.3604 38.8592 25.5246 39.6093M94.2219 94.2214H0.779304V66.8716M94.2219 94.2214L47.5351 47.5346M94.2219 94.2214V28.1693M0.779304 66.8716C0.784093 73.8695 3.45612 80.8661 8.79543 86.2056C19.4835 96.8931 36.8125 96.8931 47.5006 86.2056C53.5127 80.1934 56.143 72.08 55.3914 64.2294M47.5351 47.5346C47.5237 47.5231 47.5121 47.5116 47.5006 47.5001M47.5351 47.5346C58.226 58.1883 75.5292 58.1768 86.2061 47.5001C91.544 42.1616 94.2165 35.1662 94.2219 28.1693M47.5351 47.5346C52.1896 52.2054 54.8084 58.1383 55.3914 64.2294M47.5006 47.5001C52.1766 52.1762 54.807 58.1234 55.3914 64.2294M47.5006 47.5001C41.4885 41.4881 33.3753 38.8578 25.5246 39.6093" stroke="#FFEF9E" stroke-width="1.5" stroke-linejoin="round" stroke-dasharray="1 1"/>
</g>
<defs>
<clipPath id="clip0_579_1278">
<rect width="95" height="95" fill="white"/>
</clipPath>
</defs>
</svg>
