<svg width="197" height="52" viewBox="0 0 197 52" fill="none" xmlns="http://www.w3.org/2000/svg">
<g clip-path="url(#clip0_533_1072)">
<path d="M0 20.0465V51.9999H28.5795V41.111L10.6438 41.1837V10.7676L7.52562 13.4508V44.3829L25.1759 44.3102V48.8007H3.10101V17.3251L0 20.0465Z" fill="white"/>
<path d="M43.6924 52L43.6787 18.3951L22.7314 0L15.0064 6.88301V19.7246L22.2295 13.3609L32.942 22.7333V25.8078H15.0029V36.4924H32.918V52.0069H43.689L43.6924 52ZM18.3343 33.3799V28.91L36.0533 28.9516V21.0507L22.2845 8.98808L18.3343 12.4469V7.88361L22.697 4.04741L40.588 19.6969L40.6017 48.8009H36.0327V33.3764H18.3377L18.3343 33.3799Z" fill="white"/>
<path d="M59.29 16.9443V28.7853H63.9106V31.5275H55.7627V16.9443H59.29Z" fill="white"/>
<path d="M74.6164 28.9515H69.212L68.3457 31.5275H64.6533L69.8927 16.9443H73.977L79.2164 31.5275H75.4828L74.6164 28.9515ZM71.9142 20.8706L70.1403 26.2094H73.7088L71.9142 20.8706Z" fill="white"/>
<path d="M91.0978 16.9443C94.6458 16.9443 96.4197 19.0009 96.4197 21.5353C96.4197 23.3634 95.4296 25.0876 93.2019 25.7524L96.5435 31.5275H92.5624L89.5508 26.0224H88.705V31.5275H85.1777V16.9443H91.0978ZM90.8916 19.8942H88.705V23.5088H90.8916C92.2117 23.5088 92.8306 22.8233 92.8306 21.6807C92.8306 20.6005 92.2117 19.8942 90.8916 19.8942Z" fill="white"/>
<path d="M107.497 19.7903H102.154V22.7402H106.878V25.4823H102.154V28.6815H107.497V31.5275H98.627V16.9443H107.497V19.7903Z" fill="white"/>
<path d="M109.786 16.9443H113.313V31.5275H109.786V16.9443Z" fill="white"/>
<path d="M128.825 16.9443V31.5275H125.298L119.398 22.5325V31.5275H115.871V16.9443H119.398L125.298 25.9809V16.9443H128.825Z" fill="white"/>
<path d="M131.383 16.9443H134.91V31.5275H131.383V16.9443Z" fill="white"/>
<path d="M150.979 21.5563H147.081C146.544 20.5799 145.554 20.0606 144.234 20.0606C141.965 20.0606 140.459 21.6809 140.459 24.2153C140.459 26.9159 141.986 28.4947 144.523 28.4947C146.276 28.4947 147.493 27.5599 148.03 25.9187H143.553V23.3013H151.227V26.6043C150.484 29.1179 148.071 31.6315 144.255 31.6315C139.923 31.6315 136.87 28.5778 136.87 24.2153C136.87 19.8528 139.902 16.7783 144.234 16.7783C147.7 16.7783 150.216 18.5649 150.979 21.5563Z" fill="white"/>
<path d="M153.125 16.9443H156.652V25.6693C156.652 27.3935 157.498 28.3906 159.169 28.3906C160.84 28.3906 161.727 27.3935 161.727 25.6693V16.9443H165.254V25.6485C165.254 29.6786 162.449 31.6729 159.107 31.6729C155.765 31.6729 153.125 29.6786 153.125 25.6485V16.9443Z" fill="white"/>
<path d="M180.684 16.9443V31.5275H177.156L171.257 22.5325V31.5275H167.729V16.9443H171.257L177.156 25.9809V16.9443H180.684Z" fill="white"/>
<path d="M196.752 21.5563H192.853C192.317 20.5799 191.327 20.0606 190.007 20.0606C187.738 20.0606 186.232 21.6809 186.232 24.2153C186.232 26.9159 187.758 28.4947 190.295 28.4947C192.049 28.4947 193.266 27.5599 193.802 25.9187H189.326V23.3013H196.999V26.6043C196.257 29.1179 193.843 31.6315 190.027 31.6315C185.695 31.6315 182.643 28.5778 182.643 24.2153C182.643 19.8528 185.675 16.7783 190.007 16.7783C193.472 16.7783 195.989 18.5649 196.752 21.5563Z" fill="white"/>
<path d="M58.3726 41.291L57.1453 39.366H56.1861V41.291H55.5879V36.4438H57.5234C58.4036 36.4438 59.0327 37.0117 59.0327 37.9049C59.0327 38.7982 58.4414 39.2587 57.7847 39.3141L59.0843 41.291H58.376H58.3726ZM58.407 37.9049C58.407 37.3614 58.0185 36.9805 57.4478 36.9805H56.1861V38.8328H57.4478C58.0185 38.8328 58.407 38.4485 58.407 37.9015V37.9049Z" fill="white"/>
<path d="M60.4658 41.291V36.4438H63.6218V36.9805H61.0675V38.542H63.5737V39.0786H61.0675V40.7509H63.6218V41.2876H60.4658V41.291Z" fill="white"/>
<path d="M65.0664 41.291V36.4438H65.6646V41.291H65.0664Z" fill="white"/>
<path d="M70.6912 41.291L67.8824 37.4237V41.291H67.2842V36.4438H67.8961L70.6671 40.2316V36.4438H71.2653V41.291H70.6877H70.6912Z" fill="white"/>
<path d="M72.8838 41.291V36.4438H73.482V41.291H72.8838Z" fill="white"/>
<path d="M74.9053 38.8675C74.9053 37.3614 76.0088 36.3608 77.3806 36.3608C78.2332 36.3608 78.8245 36.7382 79.2508 37.268L78.7729 37.5657C78.4704 37.1745 77.9581 36.8975 77.3806 36.8975C76.3251 36.8975 75.5241 37.7111 75.5241 38.8675C75.5241 40.0239 76.3251 40.8445 77.3806 40.8445C77.9581 40.8445 78.436 40.5606 78.6732 40.3217V39.3315H77.0196V38.7948H79.2714V40.5467C78.8245 41.0488 78.1679 41.3811 77.3806 41.3811C76.0088 41.3811 74.9053 40.3702 74.9053 38.8675Z" fill="white"/>
<path d="M80.7402 39.4076V36.4404H81.3384V39.3903C81.3384 40.2766 81.8163 40.8375 82.7033 40.8375C83.5903 40.8375 84.0681 40.2766 84.0681 39.3903V36.4404H84.6663V39.4007C84.6663 40.609 84.0097 41.3776 82.7033 41.3776C81.3969 41.3776 80.7402 40.5986 80.7402 39.4076Z" fill="white"/>
<path d="M89.6921 41.291L86.8834 37.4237V41.291H86.2852V36.4438H86.8971L89.6681 40.2316V36.4438H90.2663V41.291H89.6887H89.6921Z" fill="white"/>
<path d="M91.6934 38.8675C91.6934 37.3614 92.7969 36.3608 94.1687 36.3608C95.0213 36.3608 95.6126 36.7382 96.0389 37.268L95.561 37.5657C95.2585 37.1745 94.7462 36.8975 94.1687 36.8975C93.1132 36.8975 92.3122 37.7111 92.3122 38.8675C92.3122 40.0239 93.1132 40.8445 94.1687 40.8445C94.7462 40.8445 95.2241 40.5606 95.4613 40.3217V39.3315H93.8077V38.7948H96.0595V40.5467C95.6126 41.0488 94.956 41.3811 94.1687 41.3811C92.7969 41.3811 91.6934 40.3702 91.6934 38.8675Z" fill="white"/>
<path d="M102.99 41.291C102.846 41.1664 102.657 40.9864 102.464 40.7821C102.11 41.1387 101.663 41.3776 101.079 41.3776C100.25 41.3776 99.5762 40.9275 99.5762 40.0238C99.5762 39.2691 100.082 38.8813 100.638 38.5835C100.422 38.2131 100.271 37.8357 100.271 37.4929C100.271 36.8455 100.804 36.3677 101.484 36.3677C102.113 36.3677 102.574 36.7104 102.574 37.3198C102.574 38.0469 101.962 38.3654 101.347 38.6874C101.543 38.9575 101.742 39.1964 101.904 39.3764C102.1 39.6084 102.285 39.8196 102.474 40.0238C102.742 39.6257 102.908 39.1894 102.993 38.9194L103.461 39.1237C103.296 39.508 103.093 39.9684 102.804 40.3735C103.086 40.6713 103.389 40.9621 103.743 41.291H102.993H102.99ZM102.137 40.4462C101.862 40.1554 101.611 39.8784 101.474 39.7122C101.271 39.4803 101.061 39.2171 100.869 38.9402C100.473 39.186 100.161 39.4837 100.161 39.9858C100.161 40.5882 100.621 40.924 101.127 40.924C101.522 40.924 101.862 40.7198 102.137 40.4428V40.4462ZM101.12 38.3377C101.632 38.085 102.072 37.8218 102.072 37.3406C102.072 36.984 101.828 36.797 101.501 36.797C101.134 36.797 100.831 37.0878 100.831 37.5033C100.831 37.756 100.955 38.0573 101.12 38.3377Z" fill="white"/>
<path d="M107.353 41.291V36.4438H110.509V36.9805H107.954V38.542H110.46V39.0786H107.954V41.2876H107.356L107.353 41.291Z" fill="white"/>
<path d="M114.989 41.291L114.562 40.2143H112.166L111.74 41.291H111.056L112.991 36.4438H113.734L115.676 41.291H114.992H114.989ZM113.366 37.0671L112.341 39.6776H114.384L113.366 37.0671Z" fill="white"/>
<path d="M116.333 38.8675C116.333 37.3788 117.423 36.3608 118.808 36.3608C119.661 36.3608 120.252 36.7763 120.634 37.3199L120.128 37.6038C119.853 37.1953 119.355 36.8975 118.808 36.8975C117.753 36.8975 116.952 37.7111 116.952 38.8675C116.952 40.0239 117.753 40.8376 118.808 40.8376C119.358 40.8376 119.853 40.5467 120.128 40.1313L120.641 40.4152C120.235 40.9691 119.657 41.3742 118.808 41.3742C117.423 41.3742 116.333 40.3563 116.333 38.8675Z" fill="white"/>
<path d="M121.898 41.291V36.4438H122.497V41.291H121.898Z" fill="white"/>
<path d="M124.116 41.291V36.4438H124.714V40.7544H126.952V41.291H124.116Z" fill="white"/>
<path d="M128.29 41.291V36.4438H128.888V41.291H128.29Z" fill="white"/>
<path d="M131.697 41.291V36.9805H130.174V36.4438H133.825V36.9805H132.295V41.291H131.697Z" fill="white"/>
<path d="M136.51 41.291V39.2414L134.612 36.4438H135.314L136.809 38.6978L138.305 36.4438H139.006L137.115 39.2414V41.291H136.517H136.51Z" fill="white"/>
<path d="M146.589 41.291V37.299L144.949 41.291H144.705L143.076 37.299V41.291H142.478V36.4438H143.337L144.833 40.0931L146.335 36.4438H147.194V41.291H146.596H146.589Z" fill="white"/>
<path d="M152.242 41.291L151.816 40.2143H149.42L148.993 41.291H148.306L150.241 36.4438H150.984L152.926 41.291H152.242ZM150.619 37.0671L149.595 39.6776H151.637L150.619 37.0671Z" fill="white"/>
<path d="M157.454 41.291L154.645 37.4237V41.291H154.047V36.4438H154.659L157.43 40.2316V36.4438H158.028V41.291H157.45H157.454Z" fill="white"/>
<path d="M163.085 41.291L162.659 40.2143H160.263L159.836 41.291H159.152L161.088 36.4438H161.83L163.773 41.291H163.085ZM161.463 37.0671L160.438 39.6776H162.48L161.463 37.0671Z" fill="white"/>
<path d="M164.429 38.8675C164.429 37.3614 165.532 36.3608 166.904 36.3608C167.757 36.3608 168.348 36.7382 168.774 37.268L168.3 37.5657C167.997 37.1745 167.485 36.8975 166.907 36.8975C165.852 36.8975 165.051 37.7111 165.051 38.8675C165.051 40.0239 165.852 40.8445 166.907 40.8445C167.485 40.8445 167.963 40.5606 168.2 40.3217V39.3315H166.546V38.7948H168.798V40.5467C168.351 41.0488 167.695 41.3811 166.907 41.3811C165.536 41.3811 164.432 40.3702 164.432 38.8675H164.429Z" fill="white"/>
<path d="M170.264 41.291V36.4438H173.42V36.9805H170.865V38.542H173.372V39.0786H170.865V40.7509H173.42V41.2876H170.264V41.291Z" fill="white"/>
<path d="M178.975 41.291V37.299L177.335 41.291H177.091L175.461 37.299V41.291H174.863V36.4438H175.723L177.218 40.0931L178.721 36.4438H179.58V41.291H178.982H178.975Z" fill="white"/>
<path d="M181.192 41.291V36.4438H184.345V36.9805H181.791V38.542H184.297V39.0786H181.791V40.7509H184.345V41.2876H181.192V41.291Z" fill="white"/>
<path d="M189.199 41.291L186.39 37.4237V41.291H185.792V36.4438H186.407L189.178 40.2316V36.4438H189.777V41.291H189.199Z" fill="white"/>
<path d="M192.585 41.291V36.9805H191.062V36.4438H194.714V36.9805H193.184V41.291H192.585Z" fill="white"/>
</g>
<defs>
<clipPath id="clip0_533_1072">
<rect width="197" height="52" fill="white"/>
</clipPath>
</defs>
</svg>
